# xmcd CD database file
#
# Track frame offsets:
#	150
#	14907
#	24367
#	37787
#	52782
#	66877
#	82179
#	95994
#	109197
#	124146
#	139206
#	154629
#	166587
#	181249
#	193336
#
# Disc length: 2767 seconds
#
# Revision: 0
# Processed by: cddbd v1.5.1PL0 Copyright (c) Steve Scherf et al.
# Submitted via: CDex 1.51
#
DISCID=c90acd0f
DTITLE=Various Artist - Vocalists Of Women
DYEAR=1900
DGENRE=Jazz
TTITLE0=Sentimental Journey
TTITLE1=Button And Bows
TTITLE2=Golden Earing
TTITLE3=Black Coffee
TTITLE4=It Could Happen To You
TTITLE5=Georgia On My Mind
TTITLE6=Wherever There's Love
TTITLE7=My Foolish Heart
TTITLE8=I Got It Bad And That Ain't Good
TTITLE9=Blow Top Blues
TTITLE10=How Long Has This Been Going On
TTITLE11=Shoo-Fly Pie And Apple Pan Dowdy
TTITLE12=Strange Fruit
TTITLE13=I Can Dream, Can't I ?
TTITLE14=(I Love You) For Sentimental Reasons
EXTD=
EXTT0=
EXTT1=
EXTT2=
EXTT3=
EXTT4=
EXTT5=
EXTT6=
EXTT7=
EXTT8=
EXTT9=
EXTT10=
EXTT11=
EXTT12=
EXTT13=
EXTT14=
PLAYORDER=
